# xmcd
#
# Track frame offsets: 
#        150
#        14234
#        28982
#        45871
#        64035
#        82586
#        100719
#        113418
#        133903
#        155116
#
# Disc length: 2275 seconds
#
# Revision: 1
# Processed by: cddbd v1.5.2PL0 Copyright (c) Steve Scherf et al.
# Submitted via: ExactAudioCopy v1.0b3
#
DISCID=7808e10a
DTITLE=Darrell Nulisch - Just For You
DYEAR=2009
DGENRE=Blues
TTITLE0=You Don't Know Me
TTITLE1=The Woman Don't Live Here No More
TTITLE2=Work For Love
TTITLE3=Just For You
TTITLE4=It's A Shame
TTITLE5=Just A Little Blues
TTITLE6=Far Too Lonely
TTITLE7=All The Love We Had
TTITLE8=Let A Woman Be A Woman
TTITLE9=Natural Thing
EXTD=
EXTT0=
EXTT1=
EXTT2=
EXTT3=
EXTT4=
EXTT5=
EXTT6=
EXTT7=
EXTT8=
EXTT9=
PLAYORDER=
